<?xml version="1.0" encoding="utf-8"?>
<!-- Generator: Adobe Illustrator 22.0.0, SVG Export Plug-In . SVG Version: 6.00 Build 0)  -->
<svg version="1.1" id="Calque_1" xmlns="http://www.w3.org/2000/svg" xmlns:xlink="http://www.w3.org/1999/xlink" x="0px" y="0px"
	 viewBox="0 0 570 720" style="enable-background:new 0 0 570 720;" xml:space="preserve">
<style type="text/css">
	.st0{fill:#75A928;}
	.st1{fill:#002542;}
	.st2{fill:#FFFFFF;}
</style>
<path d="M158.4,1.7c-3.6,0.1-7.5,1.4-11.9,4.9c-10.8-4.2-21.3-5.6-30.7,2.9c-14.5-1.9-19.2,2-22.8,6.5c-3.2-0.1-23.8-3.3-33.3,10.8
	c-23.8-2.8-31.3,14-22.8,29.7C32,64,27,71.4,38.3,85.8c-4,8-1.5,16.6,7.9,27.1c-2.5,11.2,2.4,19.1,11.2,25.3
	c-1.6,15.4,14.1,24.3,18.8,27.5c1.8,8.9,5.6,17.4,23.5,22.1c3,13.3,13.8,15.6,24.2,18.4c-34.6,20.1-64.2,46.5-64,111.4l-5.1,9
	c-39.6,24.1-75.3,101.6-19.5,164.5c3.6,19.7,9.7,33.9,15.2,49.5c8.1,63.1,61.2,92.7,75.2,96.2c20.5,15.6,42.4,30.5,71.9,40.8
	c27.9,28.7,58.1,39.7,88.4,39.7c0.4,0,0.9,0,1.3,0c30.4,0,60.6-10.9,88.4-39.7c29.6-10.4,51.4-25.2,71.9-40.8
	c14-3.5,67.1-33.1,75.2-96.2c5.4-15.7,11.5-29.8,15.2-49.5c55.8-63,20.1-140.4-19.5-164.5l-5.1-9c0.2-64.9-29.4-91.3-64-111.4
	c10.5-2.8,21.3-5.1,24.2-18.4c18-4.7,21.7-13.1,23.5-22.1c4.7-3.2,20.4-12.1,18.8-27.5c8.8-6.2,13.7-14.1,11.2-25.3
	c9.5-10.5,12-19.1,7.9-27.1c11.4-14.3,6.3-21.8,1.5-29.3c8.5-15.7,1-32.5-22.8-29.7C504.7,12.7,484,15.9,480.8,16
	c-3.6-4.5-8.3-8.4-22.8-6.5c-9.4-8.5-19.9-7.1-30.7-2.9c-12.9-10.1-21.4-2-31.1,1.1c-15.6-5.1-19.1,1.9-26.8,4.7
	c-17-3.6-22.1,4.2-30.3,12.5l-9.5-0.2c-25.6,15.1-38.3,45.8-42.8,61.6c-4.5-15.8-17.2-46.5-42.8-61.6l-9.5,0.2
	c-8.1-8.2-13.3-16.1-30.3-12.5c-7.6-2.8-11.2-9.8-26.8-4.7C171.1,5.6,165.3,1.4,158.4,1.7L158.4,1.7z"/>
<path class="st0" d="M107.4,68.1c67.9,35,107.4,63.4,129.1,87.5c-11.1,44.4-68.9,46.4-90,45.2c4.3-2,7.9-4.4,9.2-8.1
	c-5.3-3.8-24.1-0.4-37.2-7.8c5-1,7.4-2.1,9.8-5.8c-12.4-4-25.8-7.4-33.6-13.9c4.2,0.1,8.2,0.9,13.7-2.9c-11.1-6-23-10.7-32.2-19.9
	c5.7-0.1,11.9-0.1,13.7-2.2c-10.2-6.3-18.8-13.3-25.9-21c8,1,11.4,0.1,13.4-1.3c-7.7-7.9-17.4-14.5-22.1-24.2
	c6,2.1,11.4,2.8,15.4-0.2c-2.6-5.9-13.8-9.4-20.2-23.1c6.3,0.6,13,1.4,14.3,0c-2.9-11.9-7.9-18.6-12.8-25.5
	c13.4-0.2,33.8,0.1,32.9-1.1l-8.3-8.5c13.1-3.5,26.6,0.6,36.3,3.6c4.4-3.5-0.1-7.8-5.4-12.3c11.2,1.5,21.3,4.1,30.4,7.6
	c4.9-4.4-3.2-8.8-7.1-13.2c17.2,3.3,24.6,7.9,31.8,12.5c5.3-5.1,0.3-9.3-3.3-13.7c13,4.8,19.7,11,26.8,17.2
	c2.4-3.2,6.1-5.6,1.6-13.4c9.2,5.3,16.2,11.6,21.3,18.6c5.7-3.6,3.4-8.6,3.4-13.2c9.6,7.8,15.7,16.1,23.1,24.2
	c1.5-1.1,2.8-4.8,4-10.7c22.9,22.2,55.2,78.2,8.3,100.3C207.9,110,160.2,86,107.4,68.1L107.4,68.1z"/>
<path class="st0" d="M467.9,68.1c-67.9,35-107.4,63.4-129.1,87.5c11.1,44.4,68.9,46.4,90,45.2c-4.3-2-7.9-4.4-9.2-8.1
	c5.3-3.8,24.1-0.4,37.2-7.8c-5-1-7.4-2.1-9.8-5.8c12.4-4,25.8-7.4,33.6-13.9c-4.2,0.1-8.2,0.9-13.7-2.9c11.1-6,23-10.7,32.2-19.9
	c-5.7-0.1-11.9-0.1-13.7-2.2c10.2-6.3,18.8-13.3,25.9-21c-8,1-11.4,0.1-13.4-1.3c7.7-7.9,17.4-14.5,22.1-24.2
	c-6,2.1-11.4,2.8-15.4-0.2c2.6-5.9,13.8-9.4,20.2-23.1c-6.3,0.6-13,1.4-14.3,0c2.9-11.9,7.9-18.6,12.8-25.5
	c-13.5-0.2-33.8,0.1-32.9-1.1l8.3-8.5c-13.1-3.5-26.6,0.6-36.3,3.6c-4.4-3.5,0.1-7.8,5.4-12.3c-11.2,1.5-21.3,4.1-30.4,7.6
	c-4.9-4.4,3.2-8.8,7.1-13.2c-17.2,3.3-24.6,7.9-31.8,12.5c-5.3-5.1-0.3-9.3,3.3-13.7c-13,4.8-19.7,11-26.8,17.2
	c-2.4-3.2-6.1-5.6-1.6-13.4c-9.2,5.3-16.2,11.6-21.3,18.6c-5.7-3.6-3.4-8.6-3.4-13.2c-9.6,7.8-15.7,16.1-23.1,24.2
	c-1.5-1.1-2.8-4.8-4-10.7c-22.9,22.2-55.2,78.2-8.3,100.3C367.4,110,415.1,86,467.9,68.1L467.9,68.1z"/>
<path class="st1" d="M494.9,340.8c-3.5-9-7.5-17.7-12-26c1.6-61.8-41.7-98-96.9-95.8c-30.9-16-65.8-25-102.8-25
	c-35.6,0-69.3,8.3-99.2,23.2c-57.2-4.1-102.7,32.7-100.7,96.3c0,0.5,0.1,0.9,0.3,1.3c-4.9,9.2-9.2,18.7-12.9,28.6
	c-57.9,35.1-47.3,110.3-15.1,136.2c2.3,1,4.5,1,6.7,0.1c2.7,11.7,6.4,23,10.8,33.9c-2.2,17.4,1.8,41,14.9,64.3
	c23.2,33.4,53.4,44.8,75.1,44.1c14.2,9.1,29.6,16.6,45.7,22.3c-1,1.8-1.5,3.7-1.5,5.6c-0.5,12.1,39.1,46.9,79.5,45.2
	c39,0.7,79.4-34.1,78.8-49.5c0-1.3-0.3-2.5-0.9-3.8c12.8-5,25-11.1,36.6-18.3c22.3,3.3,55.9-6.6,82.4-43.4
	c17.1-21.9,18.8-53.7,13.6-76.5c2.9-8.4,5.4-17,7.4-25.7c2,0.7,4.1,0.6,6.2-0.3C543.4,451.5,553.9,375.7,494.9,340.8z"/>
<path id="path4" class="st2" d="
	M137.9,472.4h-34.1v90h20.6v-28.3H138c17.7,0,31.5-13.7,31.5-30.9C169.5,486.2,155.8,472.4,137.9,472.4z M137.9,514.8h-13.5v-23.1
	h13.5c6.4,0,11,5,11,11.6C148.9,509.9,144.3,514.8,137.9,514.8z M357.8,472.4h20.6v90h-20.6V472.4z M336.1,503.3
	c0.1-17.1-13.8-30.9-30.9-30.9h-36v90h20.6v-28.3h10.5l16.2,28.3h22.1l-18.9-32.6C329.7,525.2,336.1,514.4,336.1,503.3z
	 M305.3,516.2h-15.4v-24.5h15.4c5.7,0,10.3,5.3,10.3,12.2C315.6,511,311,516.2,305.3,516.2z M199.8,472.4l-30.6,90h22.5l5-15.8
	c10.6,2.7,21.7,2.7,32.3,0l5.1,15.8h22.5l-30.6-90H199.8z M212.8,530.6c-3.6,0-7.2-0.4-10.7-1.3l10.7-33.4l10.6,33.4
	C220,530.1,216.4,530.6,212.8,530.6L212.8,530.6z M440.6,509.8c-13.9-4.2-19.6-6.6-19.6-12.2c0-4.3,4.1-6.8,9.7-6.8
	c9,0,12.6,4.8,15.7,9.3l17.1-9.1c-2.9-5.7-11.3-20.3-32.9-20.3c-15.2,0-30.2,9.7-30.2,27.4c0,21.2,20.2,25.2,26.5,27.4
	c6.3,2.2,18.6,3.8,18.6,11.5c0,5.4-5.6,7.4-12.8,7.4c-8.1,0-14.5-4.5-18.5-11.4l-17.5,9.2c1.3,3.8,11.6,22.2,35.9,22.2
	c19.2,0,33.5-10.2,33.5-27.7C466.1,522.7,458.6,515,440.6,509.8L440.6,509.8z"/>
<path id="path4-0" class="st2" d="M395.9,368.9
	c-0.9,0-1.4,0.7-2.4,2.7c-20.4,44.9-58.2,66.3-98.1,66.6c-79.6,0.6-98.4-64.9-98.8-66.7l40.6,7.5c0.1,0.4,15.8,36.2,56.8,36.2
	c43.4,0,73.5-43.3,73.5-88c0-40.3-17-63.3-41.6-81.3l-110.6,51.1c-1,0.5-0.8,2,0.3,2.1c61.2,14.2,71.7,58.2,68.7,83.2
	c-0.4,3.7,2,3.1,4.4-3.8c8.4-24.8,2.4-60.9-30.8-81.2c0,0,61.5-30.8,61.5-30.7c7.4,5.7,31.5,22,31.5,60.8s-22.4,74-56.9,74
	c-34.2,0-46.1-34.9-46.4-35.5l-73.1-15.9c-1.2-0.3-2.2,0.7-2.1,1.8c6.4,55.8,51,101.3,115.7,101.3c53.7,0,90.1-29.5,105.6-71.1
	C397.2,372.3,397,368.9,395.9,368.9L395.9,368.9z"/>
</svg>
